<svg xmlns="http://www.w3.org/2000/svg" xml:space="preserve" xmlns:xlink="http://www.w3.org/1999/xlink" style="max-width: 100%;height: auto;" width="984" height="984" viewBox="0 0 984 984">
<defs><mask id="qrmask"><g fill="#ffffff"><g>
<g transform="translate(240,48) scale(4.12)"><path d="M5.5,6h-5V3c0-1.4,1.1-2.5,2.5-2.5h0c1.4,0,2.5,1.1,2.5,2.5V6z"/></g>
<g transform="translate(264,48) scale(4.12)"><path d="M5.5,6h-5V3c0-1.4,1.1-2.5,2.5-2.5h0c1.4,0,2.5,1.1,2.5,2.5V6z"/></g>
<g transform="translate(360,48) scale(4.12)"><path d="M5.5,6h-5V3c0-1.4,1.1-2.5,2.5-2.5h0c1.4,0,2.5,1.1,2.5,2.5V6z"/></g>
<g transform="translate(384,48) scale(4.12)"><path d="M5.5,6h-5V3c0-1.4,1.1-2.5,2.5-2.5h0c1.4,0,2.5,1.1,2.5,2.5V6z"/></g>
<g transform="translate(432,48) scale(4.12)"><circle cx="3" cy="3" r="2.5"/></g>
<g transform="translate(504,48) scale(4.12)"><path d="M5.5,6h-5V3c0-1.4,1.1-2.5,2.5-2.5h0c1.4,0,2.5,1.1,2.5,2.5V6z"/></g>
<g transform="translate(528,48) scale(4.12)"><circle cx="3" cy="3" r="2.5"/></g>
<g transform="translate(576,48) scale(4.12)"><circle cx="3" cy="3" r="2.5"/></g>
<g transform="translate(624,48) scale(4.12)"><circle cx="3" cy="3" r="2.5"/></g>
<g transform="translate(240,72) scale(4.12)"><rect x="0.5" width="5" height="6"/></g>
<g transform="translate(264,72) scale(4.12)"><rect x="0.5" width="5" height="6"/></g>
<g transform="translate(312,72) scale(4.12)"><circle cx="3" cy="3" r="2.5"/></g>
<g transform="translate(336,72) scale(4.12)"><path d="M5.5,6h-5V3c0-1.4,1.1-2.5,2.5-2.5h0c1.4,0,2.5,1.1,2.5,2.5V6z"/></g>
<g transform="translate(360,72) scale(4.12)"><rect x="0.5" width="5" height="6"/></g>
<g transform="translate(384,72) scale(4.12)"><path d="M3,5.5L3,5.5C1.6,5.5,0.5,4.4,0.5,3V0h5v3C5.5,4.4,4.4,5.5,3,5.5z"/></g>
<g transform="translate(408,72) scale(4.12)"><path d="M5.5,6h-5V3c0-1.4,1.1-2.5,2.5-2.5h0c1.4,0,2.5,1.1,2.5,2.5V6z"/></g>
<g transform="translate(456,72) scale(4.12)"><circle cx="3" cy="3" r="2.5"/></g>
<g transform="translate(504,72) scale(4.12)"><path d="M3,5.5L3,5.5C1.6,5.5,0.5,4.4,0.5,3V0h5v3C5.5,4.4,4.4,5.5,3,5.5z"/></g>
<g transform="translate(552,72) scale(4.12)"><path d="M5.5,6h-5V3c0-1.4,1.1-2.5,2.5-2.5h0c1.4,0,2.5,1.1,2.5,2.5V6z"/></g>
<g transform="translate(600,72) scale(4.12)"><path d="M5.5,6h-5V3c0-1.4,1.1-2.5,2.5-2.5h0c1.4,0,2.5,1.1,2.5,2.5V6z"/></g>
<g transform="translate(648,72) scale(4.12)"><circle cx="3" cy="3" r="2.5"/></g>
<g transform="translate(672,72) scale(4.12)"><path d="M5.5,6h-5V3c0-1.4,1.1-2.5,2.5-2.5h0c1.4,0,2.5,1.1,2.5,2.5V6z"/></g>
<g transform="translate(696,72) scale(4.12)"><path d="M5.5,6h-5V3c0-1.4,1.1-2.5,2.5-2.5h0c1.4,0,2.5,1.1,2.5,2.5V6z"/></g>
<g transform="translate(720,72) scale(4.12)"><path d="M5.5,6h-5V3c0-1.4,1.1-2.5,2.5-2.5h0c1.4,0,2.5,1.1,2.5,2.5V6z"/></g>
<g transform="translate(240,96) scale(4.12)"><path d="M3,5.5L3,5.5C1.6,5.5,0.5,4.4,0.5,3V0h5v3C5.5,4.4,4.4,5.5,3,5.5z"/></g>
<g transform="translate(264,96) scale(4.12)"><path d="M3,5.5L3,5.5C1.6,5.5,0.5,4.4,0.5,3V0h5v3C5.5,4.4,4.4,5.5,3,5.5z"/></g>
<g transform="translate(288,96) scale(4.12)"><circle cx="3" cy="3" r="2.5"/></g>
<g transform="translate(336,96) scale(4.12)"><rect x="0.5" width="5" height="6"/></g>
<g transform="translate(360,96) scale(4.12)"><path d="M3,5.5L3,5.5C1.6,5.5,0.5,4.4,0.5,3V0h5v3C5.5,4.4,4.4,5.5,3,5.5z"/></g>
<g transform="translate(408,96) scale(4.12)"><rect x="0.5" width="5" height="6"/></g>
<g transform="translate(480,96) scale(4.12)"><circle cx="3" cy="3" r="2.5"/></g>
<g transform="translate(528,96) scale(4.12)"><path d="M5.5,6h-5V3c0-1.4,1.1-2.5,2.5-2.5h0c1.4,0,2.5,1.1,2.5,2.5V6z"/></g>
<g transform="translate(552,96) scale(4.12)"><path d="M3,5.5L3,5.5C1.6,5.5,0.5,4.4,0.5,3V0h5v3C5.5,4.4,4.4,5.5,3,5.5z"/></g>
<g transform="translate(600,96) scale(4.12)"><rect x="0.5" width="5" height="6"/></g>
<g transform="translate(624,96) scale(4.12)"><circle cx="3" cy="3" r="2.5"/></g>
<g transform="translate(672,96) scale(4.12)"><rect x="0.5" width="5" height="6"/></g>
<g transform="translate(696,96) scale(4.12)"><path d="M3,5.5L3,5.5C1.6,5.5,0.5,4.4,0.5,3V0h5v3C5.5,4.4,4.4,5.5,3,5.5z"/></g>
<g transform="translate(720,96) scale(4.12)"><path d="M3,5.5L3,5.5C1.6,5.5,0.5,4.4,0.5,3V0h5v3C5.5,4.4,4.4,5.5,3,5.5z"/></g>
<g transform="translate(312,120) scale(4.12)"><circle cx="3" cy="3" r="2.5"/></g>
<g transform="translate(336,120) scale(4.12)"><path d="M3,5.5L3,5.5C1.6,5.5,0.5,4.4,0.5,3V0h5v3C5.5,4.4,4.4,5.5,3,5.5z"/></g>
<g transform="translate(408,120) scale(4.12)"><path d="M3,5.5L3,5.5C1.6,5.5,0.5,4.4,0.5,3V0h5v3C5.5,4.4,4.4,5.5,3,5.5z"/></g>
<g transform="translate(432,120) scale(4.12)"><circle cx="3" cy="3" r="2.5"/></g>
<g transform="translate(456,120) scale(4.12)"><path d="M5.5,6h-5V3c0-1.4,1.1-2.5,2.5-2.5h0c1.4,0,2.5,1.1,2.5,2.5V6z"/></g>
<g transform="translate(504,120) scale(4.12)"><path d="M5.5,6h-5V3c0-1.4,1.1-2.5,2.5-2.5h0c1.4,0,2.5,1.1,2.5,2.5V6z"/></g>
<g transform="translate(528,120) scale(4.12)"><path d="M3,5.5L3,5.5C1.6,5.5,0.5,4.4,0.5,3V0h5v3C5.5,4.4,4.4,5.5,3,5.5z"/></g>
<g transform="translate(576,120) scale(4.12)"><circle cx="3" cy="3" r="2.5"/></g>
<g transform="translate(600,120) scale(4.12)"><rect x="0.5" width="5" height="6"/></g>
<g transform="translate(648,120) scale(4.12)"><path d="M5.5,6h-5V3c0-1.4,1.1-2.5,2.5-2.5h0c1.4,0,2.5,1.1,2.5,2.5V6z"/></g>
<g transform="translate(672,120) scale(4.12)"><path d="M3,5.5L3,5.5C1.6,5.5,0.5,4.4,0.5,3V0h5v3C5.5,4.4,4.4,5.5,3,5.5z"/></g>
<g transform="translate(264,144) scale(4.12)"><circle cx="3" cy="3" r="2.5"/></g>
<g transform="translate(384,144) scale(4.12)"><path d="M5.5,6h-5V3c0-1.4,1.1-2.5,2.5-2.5h0c1.4,0,2.5,1.1,2.5,2.5V6z"/></g>
<g transform="translate(456,144) scale(4.12)"><rect x="0.5" width="5" height="6"/></g>
<g transform="translate(504,144) scale(4.12)"><path d="M3,5.5L3,5.5C1.6,5.5,0.5,4.4,0.5,3V0h5v3C5.5,4.4,4.4,5.5,3,5.5z"/></g>
<g transform="translate(600,144) scale(4.12)"><path d="M3,5.5L3,5.5C1.6,5.5,0.5,4.4,0.5,3V0h5v3C5.5,4.4,4.4,5.5,3,5.5z"/></g>
<g transform="translate(624,144) scale(4.12)"><circle cx="3" cy="3" r="2.5"/></g>
<g transform="translate(648,144) scale(4.12)"><rect x="0.5" width="5" height="6"/></g>
<g transform="translate(240,168) scale(4.12)"><path d="M5.5,6h-5V3c0-1.4,1.1-2.5,2.5-2.5h0c1.4,0,2.5,1.1,2.5,2.5V6z"/></g>
<g transform="translate(288,168) scale(4.12)"><path d="M5.5,6h-5V3c0-1.4,1.1-2.5,2.5-2.5h0c1.4,0,2.5,1.1,2.5,2.5V6z"/></g>
<g transform="translate(384,168) scale(4.12)"><rect x="0.5" width="5" height="6"/></g>
<g transform="translate(456,168) scale(4.12)"><path d="M3,5.5L3,5.5C1.6,5.5,0.5,4.4,0.5,3V0h5v3C5.5,4.4,4.4,5.5,3,5.5z"/></g>
<g transform="translate(528,168) scale(4.12)"><path d="M5.5,6h-5V3c0-1.4,1.1-2.5,2.5-2.5h0c1.4,0,2.5,1.1,2.5,2.5V6z"/></g>
<g transform="translate(552,168) scale(4.12)"><circle cx="3" cy="3" r="2.5"/></g>
<g transform="translate(648,168) scale(4.12)"><path d="M3,5.5L3,5.5C1.6,5.5,0.5,4.4,0.5,3V0h5v3C5.5,4.4,4.4,5.5,3,5.5z"/></g>
<g transform="translate(672,168) scale(4.12)"><path d="M5.5,6h-5V3c0-1.4,1.1-2.5,2.5-2.5h0c1.4,0,2.5,1.1,2.5,2.5V6z"/></g>
<g transform="translate(696,168) scale(4.12)"><circle cx="3" cy="3" r="2.5"/></g>
<g transform="translate(720,168) scale(4.12)"><path d="M5.5,6h-5V3c0-1.4,1.1-2.5,2.5-2.5h0c1.4,0,2.5,1.1,2.5,2.5V6z"/></g>
<g transform="translate(240,192) scale(4.12)"><rect x="0.5" width="5" height="6"/></g>
<g transform="translate(288,192) scale(4.12)"><rect x="0.5" width="5" height="6"/></g>
<g transform="translate(336,192) scale(4.12)"><circle cx="3" cy="3" r="2.5"/></g>
<g transform="translate(384,192) scale(4.12)"><rect x="0.5" width="5" height="6"/></g>
<g transform="translate(432,192) scale(4.12)"><circle cx="3" cy="3" r="2.5"/></g>
<g transform="translate(480,192) scale(4.12)"><circle cx="3" cy="3" r="2.5"/></g>
<g transform="translate(528,192) scale(4.12)"><path d="M3,5.5L3,5.5C1.6,5.5,0.5,4.4,0.5,3V0h5v3C5.5,4.4,4.4,5.5,3,5.5z"/></g>
<g transform="translate(576,192) scale(4.12)"><path d="M5.5,6h-5V3c0-1.4,1.1-2.5,2.5-2.5h0c1.4,0,2.5,1.1,2.5,2.5V6z"/></g>
<g transform="translate(624,192) scale(4.12)"><path d="M5.5,6h-5V3c0-1.4,1.1-2.5,2.5-2.5h0c1.4,0,2.5,1.1,2.5,2.5V6z"/></g>
<g transform="translate(672,192) scale(4.12)"><path d="M3,5.5L3,5.5C1.6,5.5,0.5,4.4,0.5,3V0h5v3C5.5,4.4,4.4,5.5,3,5.5z"/></g>
<g transform="translate(720,192) scale(4.12)"><rect x="0.5" width="5" height="6"/></g>
<g transform="translate(240,216) scale(4.12)"><rect x="0.5" width="5" height="6"/></g>
<g transform="translate(264,216) scale(4.12)"><path d="M5.5,6h-5V3c0-1.4,1.1-2.5,2.5-2.5h0c1.4,0,2.5,1.1,2.5,2.5V6z"/></g>
<g transform="translate(288,216) scale(4.12)"><rect x="0.5" width="5" height="6"/></g>
<g transform="translate(312,216) scale(4.12)"><path d="M5.5,6h-5V3c0-1.4,1.1-2.5,2.5-2.5h0c1.4,0,2.5,1.1,2.5,2.5V6z"/></g>
<g transform="translate(360,216) scale(4.12)"><path d="M5.5,6h-5V3c0-1.4,1.1-2.5,2.5-2.5h0c1.4,0,2.5,1.1,2.5,2.5V6z"/></g>
<g transform="translate(384,216) scale(4.12)"><rect x="0.5" width="5" height="6"/></g>
<g transform="translate(504,216) scale(4.12)"><circle cx="3" cy="3" r="2.5"/></g>
<g transform="translate(576,216) scale(4.12)"><path d="M3,5.5L3,5.5C1.6,5.5,0.5,4.4,0.5,3V0h5v3C5.5,4.4,4.4,5.5,3,5.5z"/></g>
<g transform="translate(624,216) scale(4.12)"><rect x="0.5" width="5" height="6"/></g>
<g transform="translate(648,216) scale(4.12)"><circle cx="3" cy="3" r="2.5"/></g>
<g transform="translate(720,216) scale(4.12)"><rect x="0.5" width="5" height="6"/></g>
<g transform="translate(96,240) scale(4.12)"><circle cx="3" cy="3" r="2.5"/></g>
<g transform="translate(120,240) scale(4.12)"><circle cx="3" cy="3" r="2.5"/></g>
<g transform="translate(144,240) scale(4.12)"><path d="M5.5,6h-5V3c0-1.4,1.1-2.5,2.5-2.5h0c1.4,0,2.5,1.1,2.5,2.5V6z"/></g>
<g transform="translate(192,240) scale(4.12)"><circle cx="3" cy="3" r="2.5"/></g>
<g transform="translate(240,240) scale(4.12)"><path d="M3,5.5L3,5.5C1.6,5.5,0.5,4.4,0.5,3V0h5v3C5.5,4.4,4.4,5.5,3,5.5z"/></g>
<g transform="translate(264,240) scale(4.12)"><path d="M3,5.5L3,5.5C1.6,5.5,0.5,4.4,0.5,3V0h5v3C5.5,4.4,4.4,5.5,3,5.5z"/></g>
<g transform="translate(288,240) scale(4.12)"><rect x="0.5" width="5" height="6"/></g>
<g transform="translate(312,240) scale(4.12)"><path d="M3,5.5L3,5.5C1.6,5.5,0.5,4.4,0.5,3V0h5v3C5.5,4.4,4.4,5.5,3,5.5z"/></g>
<g transform="translate(336,240) scale(4.12)"><circle cx="3" cy="3" r="2.5"/></g>
<g transform="translate(360,240) scale(4.12)"><rect x="0.5" width="5" height="6"/></g>
<g transform="translate(384,240) scale(4.12)"><path d="M3,5.5L3,5.5C1.6,5.5,0.5,4.4,0.5,3V0h5v3C5.5,4.4,4.4,5.5,3,5.5z"/></g>
<g transform="translate(408,240) scale(4.12)"><circle cx="3" cy="3" r="2.5"/></g>
<g transform="translate(456,240) scale(4.12)"><path d="M5.5,6h-5V3c0-1.4,1.1-2.5,2.5-2.5h0c1.4,0,2.5,1.1,2.5,2.5V6z"/></g>
<g transform="translate(600,240) scale(4.12)"><path d="M5.5,6h-5V3c0-1.4,1.1-2.5,2.5-2.5h0c1.4,0,2.5,1.1,2.5,2.5V6z"/></g>
<g transform="translate(624,240) scale(4.12)"><path d="M3,5.5L3,5.5C1.6,5.5,0.5,4.4,0.5,3V0h5v3C5.5,4.4,4.4,5.5,3,5.5z"/></g>
<g transform="translate(672,240) scale(4.12)"><circle cx="3" cy="3" r="2.5"/></g>
<g transform="translate(720,240) scale(4.12)"><path d="M3,5.5L3,5.5C1.6,5.5,0.5,4.4,0.5,3V0h5v3C5.5,4.4,4.4,5.5,3,5.5z"/></g>
<g transform="translate(744,240) scale(4.12)"><path d="M5.5,6h-5V3c0-1.4,1.1-2.5,2.5-2.5h0c1.4,0,2.5,1.1,2.5,2.5V6z"/></g>
<g transform="translate(768,240) scale(4.12)"><circle cx="3" cy="3" r="2.5"/></g>
<g transform="translate(792,240) scale(4.12)"><path d="M5.5,6h-5V3c0-1.4,1.1-2.5,2.5-2.5h0c1.4,0,2.5,1.1,2.5,2.5V6z"/></g>
<g transform="translate(864,240) scale(4.12)"><path d="M5.5,6h-5V3c0-1.4,1.1-2.5,2.5-2.5h0c1.4,0,2.5,1.1,2.5,2.5V6z"/></g>
<g transform="translate(888,240) scale(4.12)"><path d="M5.5,6h-5V3c0-1.4,1.1-2.5,2.5-2.5h0c1.4,0,2.5,1.1,2.5,2.5V6z"/></g>
<g transform="translate(912,240) scale(4.12)"><circle cx="3" cy="3" r="2.5"/></g>
<g transform="translate(144,264) scale(4.12)"><rect x="0.5" width="5" height="6"/></g>
<g transform="translate(288,264) scale(4.12)"><path d="M3,5.5L3,5.5C1.6,5.5,0.5,4.4,0.5,3V0h5v3C5.5,4.4,4.4,5.5,3,5.5z"/></g>
<g transform="translate(360,264) scale(4.12)"><rect x="0.5" width="5" height="6"/></g>
<g transform="translate(456,264) scale(4.12)"><path d="M3,5.5L3,5.5C1.6,5.5,0.5,4.4,0.5,3V0h5v3C5.5,4.4,4.4,5.5,3,5.5z"/></g>
<g transform="translate(480,264) scale(4.12)"><path d="M5.5,6h-5V3c0-1.4,1.1-2.5,2.5-2.5h0c1.4,0,2.5,1.1,2.5,2.5V6z"/></g>
<g transform="translate(528,264) scale(4.12)"><path d="M5.5,6h-5V3c0-1.4,1.1-2.5,2.5-2.5h0c1.4,0,2.5,1.1,2.5,2.5V6z"/></g>
<g transform="translate(552,264) scale(4.12)"><circle cx="3" cy="3" r="2.5"/></g>
<g transform="translate(576,264) scale(4.12)"><circle cx="3" cy="3" r="2.5"/></g>
<g transform="translate(600,264) scale(4.12)"><rect x="0.5" width="5" height="6"/></g>
<g transform="translate(648,264) scale(4.12)"><path d="M5.5,6h-5V3c0-1.4,1.1-2.5,2.5-2.5h0c1.4,0,2.5,1.1,2.5,2.5V6z"/></g>
<g transform="translate(696,264) scale(4.12)"><path d="M5.5,6h-5V3c0-1.4,1.1-2.5,2.5-2.5h0c1.4,0,2.5,1.1,2.5,2.5V6z"/></g>
<g transform="translate(744,264) scale(4.12)"><path d="M3,5.5L3,5.5C1.6,5.5,0.5,4.4,0.5,3V0h5v3C5.5,4.4,4.4,5.5,3,5.5z"/></g>
<g transform="translate(792,264) scale(4.12)"><rect x="0.5" width="5" height="6"/></g>
<g transform="translate(864,264) scale(4.12)"><path d="M3,5.5L3,5.5C1.6,5.5,0.5,4.4,0.5,3V0h5v3C5.5,4.4,4.4,5.5,3,5.5z"/></g>
<g transform="translate(888,264) scale(4.12)"><rect x="0.5" width="5" height="6"/></g>
<g transform="translate(96,288) scale(4.12)"><path d="M5.5,6h-5V3c0-1.4,1.1-2.5,2.5-2.5h0c1.4,0,2.5,1.1,2.5,2.5V6z"/></g>
<g transform="translate(144,288) scale(4.12)"><path d="M3,5.5L3,5.5C1.6,5.5,0.5,4.4,0.5,3V0h5v3C5.5,4.4,4.4,5.5,3,5.5z"/></g>
<g transform="translate(192,288) scale(4.12)"><circle cx="3" cy="3" r="2.5"/></g>
<g transform="translate(216,288) scale(4.12)"><circle cx="3" cy="3" r="2.5"/></g>
<g transform="translate(264,288) scale(4.12)"><path d="M5.5,6h-5V3c0-1.4,1.1-2.5,2.5-2.5h0c1.4,0,2.5,1.1,2.5,2.5V6z"/></g>
<g transform="translate(312,288) scale(4.12)"><circle cx="3" cy="3" r="2.5"/></g>
<g transform="translate(360,288) scale(4.12)"><rect x="0.5" width="5" height="6"/></g>
<g transform="translate(384,288) scale(4.12)"><path d="M5.5,6h-5V3c0-1.4,1.1-2.5,2.5-2.5h0c1.4,0,2.5,1.1,2.5,2.5V6z"/></g>
<g transform="translate(432,288) scale(4.12)"><path d="M5.5,6h-5V3c0-1.4,1.1-2.5,2.5-2.5h0c1.4,0,2.5,1.1,2.5,2.5V6z"/></g>
<g transform="translate(480,288) scale(4.12)"><rect x="0.5" width="5" height="6"/></g>
<g transform="translate(504,288) scale(4.12)"><circle cx="3" cy="3" r="2.5"/></g>
<g transform="translate(528,288) scale(4.12)"><path d="M3,5.5L3,5.5C1.6,5.5,0.5,4.4,0.5,3V0h5v3C5.5,4.4,4.4,5.5,3,5.5z"/></g>
<g transform="translate(600,288) scale(4.12)"><path d="M3,5.5L3,5.5C1.6,5.5,0.5,4.4,0.5,3V0h5v3C5.5,4.4,4.4,5.5,3,5.5z"/></g>
<g transform="translate(648,288) scale(4.12)"><path d="M3,5.5L3,5.5C1.6,5.5,0.5,4.4,0.5,3V0h5v3C5.5,4.4,4.4,5.5,3,5.5z"/></g>
<g transform="translate(672,288) scale(4.12)"><path d="M5.5,6h-5V3c0-1.4,1.1-2.5,2.5-2.5h0c1.4,0,2.5,1.1,2.5,2.5V6z"/></g>
<g transform="translate(696,288) scale(4.12)"><rect x="0.5" width="5" height="6"/></g>
<g transform="translate(720,288) scale(4.12)"><circle cx="3" cy="3" r="2.5"/></g>
<g transform="translate(768,288) scale(4.12)"><path d="M5.5,6h-5V3c0-1.4,1.1-2.5,2.5-2.5h0c1.4,0,2.5,1.1,2.5,2.5V6z"/></g>
<g transform="translate(792,288) scale(4.12)"><rect x="0.5" width="5" height="6"/></g>
<g transform="translate(816,288) scale(4.12)"><path d="M5.5,6h-5V3c0-1.4,1.1-2.5,2.5-2.5h0c1.4,0,2.5,1.1,2.5,2.5V6z"/></g>
<g transform="translate(888,288) scale(4.12)"><path d="M3,5.5L3,5.5C1.6,5.5,0.5,4.4,0.5,3V0h5v3C5.5,4.4,4.4,5.5,3,5.5z"/></g>
<g transform="translate(912,288) scale(4.12)"><path d="M5.5,6h-5V3c0-1.4,1.1-2.5,2.5-2.5h0c1.4,0,2.5,1.1,2.5,2.5V6z"/></g>
<g transform="translate(48,312) scale(4.12)"><circle cx="3" cy="3" r="2.5"/></g>
<g transform="translate(96,312) scale(4.12)"><path d="M3,5.5L3,5.5C1.6,5.5,0.5,4.4,0.5,3V0h5v3C5.5,4.4,4.4,5.5,3,5.5z"/></g>
<g transform="translate(120,312) scale(4.12)"><circle cx="3" cy="3" r="2.5"/></g>
<g transform="translate(168,312) scale(4.12)"><circle cx="3" cy="3" r="2.5"/></g>
<g transform="translate(240,312) scale(4.12)"><circle cx="3" cy="3" r="2.5"/></g>
<g transform="translate(264,312) scale(4.12)"><rect x="0.5" width="5" height="6"/></g>
<g transform="translate(360,312) scale(4.12)"><rect x="0.5" width="5" height="6"/></g>
<g transform="translate(384,312) scale(4.12)"><rect x="0.5" width="5" height="6"/></g>
<g transform="translate(432,312) scale(4.12)"><path d="M3,5.5L3,5.5C1.6,5.5,0.5,4.4,0.5,3V0h5v3C5.5,4.4,4.4,5.5,3,5.5z"/></g>
<g transform="translate(456,312) scale(4.12)"><circle cx="3" cy="3" r="2.5"/></g>
<g transform="translate(480,312) scale(4.12)"><path d="M3,5.5L3,5.5C1.6,5.5,0.5,4.4,0.5,3V0h5v3C5.5,4.4,4.4,5.5,3,5.5z"/></g>
<g transform="translate(552,312) scale(4.12)"><circle cx="3" cy="3" r="2.5"/></g>
<g transform="translate(672,312) scale(4.12)"><rect x="0.5" width="5" height="6"/></g>
<g transform="translate(696,312) scale(4.12)"><rect x="0.5" width="5" height="6"/></g>
<g transform="translate(768,312) scale(4.12)"><rect x="0.5" width="5" height="6"/></g>
<g transform="translate(792,312) scale(4.12)"><path d="M3,5.5L3,5.5C1.6,5.5,0.5,4.4,0.5,3V0h5v3C5.5,4.4,4.4,5.5,3,5.5z"/></g>
<g transform="translate(816,312) scale(4.12)"><rect x="0.5" width="5" height="6"/></g>
<g transform="translate(912,312) scale(4.12)"><path d="M3,5.5L3,5.5C1.6,5.5,0.5,4.4,0.5,3V0h5v3C5.5,4.4,4.4,5.5,3,5.5z"/></g>
<g transform="translate(144,336) scale(4.12)"><circle cx="3" cy="3" r="2.5"/></g>
<g transform="translate(192,336) scale(4.12)"><circle cx="3" cy="3" r="2.5"/></g>
<g transform="translate(216,336) scale(4.12)"><circle cx="3" cy="3" r="2.5"/></g>
<g transform="translate(264,336) scale(4.12)"><rect x="0.5" width="5" height="6"/></g>
<g transform="translate(360,336) scale(4.12)"><path d="M3,5.5L3,5.5C1.6,5.5,0.5,4.4,0.5,3V0h5v3C5.5,4.4,4.4,5.5,3,5.5z"/></g>
<g transform="translate(384,336) scale(4.12)"><rect x="0.5" width="5" height="6"/></g>
<g transform="translate(408,336) scale(4.12)"><path d="M5.5,6h-5V3c0-1.4,1.1-2.5,2.5-2.5h0c1.4,0,2.5,1.1,2.5,2.5V6z"/></g>
<g transform="translate(504,336) scale(4.12)"><path d="M5.5,6h-5V3c0-1.4,1.1-2.5,2.5-2.5h0c1.4,0,2.5,1.1,2.5,2.5V6z"/></g>
<g transform="translate(600,336) scale(4.12)"><circle cx="3" cy="3" r="2.5"/></g>
<g transform="translate(648,336) scale(4.12)"><path d="M5.5,6h-5V3c0-1.4,1.1-2.5,2.5-2.5h0c1.4,0,2.5,1.1,2.5,2.5V6z"/></g>
<g transform="translate(672,336) scale(4.12)"><path d="M3,5.5L3,5.5C1.6,5.5,0.5,4.4,0.5,3V0h5v3C5.5,4.4,4.4,5.5,3,5.5z"/></g>
<g transform="translate(696,336) scale(4.12)"><path d="M3,5.5L3,5.5C1.6,5.5,0.5,4.4,0.5,3V0h5v3C5.5,4.4,4.4,5.5,3,5.5z"/></g>
<g transform="translate(720,336) scale(4.12)"><path d="M5.5,6h-5V3c0-1.4,1.1-2.5,2.5-2.5h0c1.4,0,2.5,1.1,2.5,2.5V6z"/></g>
<g transform="translate(744,336) scale(4.12)"><path d="M5.5,6h-5V3c0-1.4,1.1-2.5,2.5-2.5h0c1.4,0,2.5,1.1,2.5,2.5V6z"/></g>
<g transform="translate(768,336) scale(4.12)"><path d="M3,5.5L3,5.5C1.6,5.5,0.5,4.4,0.5,3V0h5v3C5.5,4.4,4.4,5.5,3,5.5z"/></g>
<g transform="translate(816,336) scale(4.12)"><path d="M3,5.5L3,5.5C1.6,5.5,0.5,4.4,0.5,3V0h5v3C5.5,4.4,4.4,5.5,3,5.5z"/></g>
<g transform="translate(840,336) scale(4.12)"><path d="M5.5,6h-5V3c0-1.4,1.1-2.5,2.5-2.5h0c1.4,0,2.5,1.1,2.5,2.5V6z"/></g>
<g transform="translate(864,336) scale(4.12)"><path d="M5.5,6h-5V3c0-1.4,1.1-2.5,2.5-2.5h0c1.4,0,2.5,1.1,2.5,2.5V6z"/></g>
<g transform="translate(888,336) scale(4.12)"><circle cx="3" cy="3" r="2.5"/></g>
<g transform="translate(48,360) scale(4.12)"><circle cx="3" cy="3" r="2.5"/></g>
<g transform="translate(72,360) scale(4.12)"><path d="M5.5,6h-5V3c0-1.4,1.1-2.5,2.5-2.5h0c1.4,0,2.5,1.1,2.5,2.5V6z"/></g>
<g transform="translate(96,360) scale(4.12)"><path d="M5.5,6h-5V3c0-1.4,1.1-2.5,2.5-2.5h0c1.4,0,2.5,1.1,2.5,2.5V6z"/></g>
<g transform="translate(120,360) scale(4.12)"><path d="M5.5,6h-5V3c0-1.4,1.1-2.5,2.5-2.5h0c1.4,0,2.5,1.1,2.5,2.5V6z"/></g>
<g transform="translate(168,360) scale(4.12)"><circle cx="3" cy="3" r="2.5"/></g>
<g transform="translate(240,360) scale(4.12)"><circle cx="3" cy="3" r="2.5"/></g>
<g transform="translate(264,360) scale(4.12)"><path d="M3,5.5L3,5.5C1.6,5.5,0.5,4.4,0.5,3V0h5v3C5.5,4.4,4.4,5.5,3,5.5z"/></g>
<g transform="translate(384,360) scale(4.12)"><rect x="0.5" width="5" height="6"/></g>
<g transform="translate(408,360) scale(4.12)"><path d="M3,5.5L3,5.5C1.6,5.5,0.5,4.4,0.5,3V0h5v3C5.5,4.4,4.4,5.5,3,5.5z"/></g>
<g transform="translate(432,360) scale(4.12)"><circle cx="3" cy="3" r="2.5"/></g>
<g transform="translate(456,360) scale(4.12)"><circle cx="3" cy="3" r="2.5"/></g>
<g transform="translate(480,360) scale(4.12)"><circle cx="3" cy="3" r="2.5"/></g>
<g transform="translate(504,360) scale(4.12)"><rect x="0.5" width="5" height="6"/></g>
<g transform="translate(528,360) scale(4.12)"><path d="M5.5,6h-5V3c0-1.4,1.1-2.5,2.5-2.5h0c1.4,0,2.5,1.1,2.5,2.5V6z"/></g>
<g transform="translate(576,360) scale(4.12)"><path d="M5.5,6h-5V3c0-1.4,1.1-2.5,2.5-2.5h0c1.4,0,2.5,1.1,2.5,2.5V6z"/></g>
<g transform="translate(624,360) scale(4.12)"><path d="M5.5,6h-5V3c0-1.4,1.1-2.5,2.5-2.5h0c1.4,0,2.5,1.1,2.5,2.5V6z"/></g>
<g transform="translate(648,360) scale(4.12)"><rect x="0.5" width="5" height="6"/></g>
<g transform="translate(720,360) scale(4.12)"><rect x="0.5" width="5" height="6"/></g>
<g transform="translate(744,360) scale(4.12)"><rect x="0.5" width="5" height="6"/></g>
<g transform="translate(792,360) scale(4.12)"><path d="M5.5,6h-5V3c0-1.4,1.1-2.5,2.5-2.5h0c1.4,0,2.5,1.1,2.5,2.5V6z"/></g>
<g transform="translate(840,360) scale(4.12)"><rect x="0.5" width="5" height="6"/></g>
<g transform="translate(864,360) scale(4.12)"><path d="M3,5.5L3,5.5C1.6,5.5,0.5,4.4,0.5,3V0h5v3C5.5,4.4,4.4,5.5,3,5.5z"/></g>
<g transform="translate(72,384) scale(4.12)"><path d="M3,5.5L3,5.5C1.6,5.5,0.5,4.4,0.5,3V0h5v3C5.5,4.4,4.4,5.5,3,5.5z"/></g>
<g transform="translate(96,384) scale(4.12)"><path d="M3,5.5L3,5.5C1.6,5.5,0.5,4.4,0.5,3V0h5v3C5.5,4.4,4.4,5.5,3,5.5z"/></g>
<g transform="translate(120,384) scale(4.12)"><rect x="0.5" width="5" height="6"/></g>
<g transform="translate(144,384) scale(4.12)"><path d="M5.5,6h-5V3c0-1.4,1.1-2.5,2.5-2.5h0c1.4,0,2.5,1.1,2.5,2.5V6z"/></g>
<g transform="translate(192,384) scale(4.12)"><circle cx="3" cy="3" r="2.5"/></g>
<g transform="translate(216,384) scale(4.12)"><circle cx="3" cy="3" r="2.5"/></g>
<g transform="translate(312,384) scale(4.12)"><path d="M5.5,6h-5V3c0-1.4,1.1-2.5,2.5-2.5h0c1.4,0,2.5,1.1,2.5,2.5V6z"/></g>
<g transform="translate(384,384) scale(4.12)"><path d="M3,5.5L3,5.5C1.6,5.5,0.5,4.4,0.5,3V0h5v3C5.5,4.4,4.4,5.5,3,5.5z"/></g>
<g transform="translate(504,384) scale(4.12)"><rect x="0.5" width="5" height="6"/></g>
<g transform="translate(528,384) scale(4.12)"><rect x="0.5" width="5" height="6"/></g>
<g transform="translate(552,384) scale(4.12)"><path d="M5.5,6h-5V3c0-1.4,1.1-2.5,2.5-2.5h0c1.4,0,2.5,1.1,2.5,2.5V6z"/></g>
<g transform="translate(576,384) scale(4.12)"><path d="M3,5.5L3,5.5C1.6,5.5,0.5,4.4,0.5,3V0h5v3C5.5,4.4,4.4,5.5,3,5.5z"/></g>
<g transform="translate(624,384) scale(4.12)"><rect x="0.5" width="5" height="6"/></g>
<g transform="translate(648,384) scale(4.12)"><path d="M3,5.5L3,5.5C1.6,5.5,0.5,4.4,0.5,3V0h5v3C5.5,4.4,4.4,5.5,3,5.5z"/></g>
<g transform="translate(672,384) scale(4.12)"><path d="M5.5,6h-5V3c0-1.4,1.1-2.5,2.5-2.5h0c1.4,0,2.5,1.1,2.5,2.5V6z"/></g>
<g transform="translate(696,384) scale(4.12)"><circle cx="3" cy="3" r="2.5"/></g>
<g transform="translate(720,384) scale(4.12)"><rect x="0.5" width="5" height="6"/></g>
<g transform="translate(744,384) scale(4.12)"><path d="M3,5.5L3,5.5C1.6,5.5,0.5,4.4,0.5,3V0h5v3C5.5,4.4,4.4,5.5,3,5.5z"/></g>
<g transform="translate(792,384) scale(4.12)"><rect x="0.5" width="5" height="6"/></g>
<g transform="translate(840,384) scale(4.12)"><path d="M3,5.5L3,5.5C1.6,5.5,0.5,4.4,0.5,3V0h5v3C5.5,4.4,4.4,5.5,3,5.5z"/></g>
<g transform="translate(888,384) scale(4.12)"><circle cx="3" cy="3" r="2.5"/></g>
<g transform="translate(912,384) scale(4.12)"><path d="M5.5,6h-5V3c0-1.4,1.1-2.5,2.5-2.5h0c1.4,0,2.5,1.1,2.5,2.5V6z"/></g>
<g transform="translate(120,408) scale(4.12)"><rect x="0.5" width="5" height="6"/></g>
<g transform="translate(144,408) scale(4.12)"><path d="M3,5.5L3,5.5C1.6,5.5,0.5,4.4,0.5,3V0h5v3C5.5,4.4,4.4,5.5,3,5.5z"/></g>
<g transform="translate(240,408) scale(4.12)"><path d="M5.5,6h-5V3c0-1.4,1.1-2.5,2.5-2.5h0c1.4,0,2.5,1.1,2.5,2.5V6z"/></g>
<g transform="translate(264,408) scale(4.12)"><path d="M5.5,6h-5V3c0-1.4,1.1-2.5,2.5-2.5h0c1.4,0,2.5,1.1,2.5,2.5V6z"/></g>
<g transform="translate(288,408) scale(4.12)"><path d="M5.5,6h-5V3c0-1.4,1.1-2.5,2.5-2.5h0c1.4,0,2.5,1.1,2.5,2.5V6z"/></g>
<g transform="translate(312,408) scale(4.12)"><rect x="0.5" width="5" height="6"/></g>
<g transform="translate(360,408) scale(4.12)"><circle cx="3" cy="3" r="2.5"/></g>
<g transform="translate(432,408) scale(4.12)"><circle cx="3" cy="3" r="2.5"/></g>
<g transform="translate(504,408) scale(4.12)"><rect x="0.5" width="5" height="6"/></g>
<g transform="translate(528,408) scale(4.12)"><rect x="0.5" width="5" height="6"/></g>
<g transform="translate(552,408) scale(4.12)"><rect x="0.5" width="5" height="6"/></g>
<g transform="translate(600,408) scale(4.12)"><circle cx="3" cy="3" r="2.5"/></g>
<g transform="translate(624,408) scale(4.12)"><rect x="0.5" width="5" height="6"/></g>
<g transform="translate(672,408) scale(4.12)"><rect x="0.5" width="5" height="6"/></g>
<g transform="translate(720,408) scale(4.12)"><path d="M3,5.5L3,5.5C1.6,5.5,0.5,4.4,0.5,3V0h5v3C5.5,4.4,4.4,5.5,3,5.5z"/></g>
<g transform="translate(792,408) scale(4.12)"><path d="M3,5.5L3,5.5C1.6,5.5,0.5,4.4,0.5,3V0h5v3C5.5,4.4,4.4,5.5,3,5.5z"/></g>
<g transform="translate(912,408) scale(4.12)"><rect x="0.5" width="5" height="6"/></g>
<g transform="translate(120,432) scale(4.12)"><path d="M3,5.5L3,5.5C1.6,5.5,0.5,4.4,0.5,3V0h5v3C5.5,4.4,4.4,5.5,3,5.5z"/></g>
<g transform="translate(168,432) scale(4.12)"><path d="M5.5,6h-5V3c0-1.4,1.1-2.5,2.5-2.5h0c1.4,0,2.5,1.1,2.5,2.5V6z"/></g>
<g transform="translate(192,432) scale(4.12)"><circle cx="3" cy="3" r="2.5"/></g>
<g transform="translate(240,432) scale(4.12)"><path d="M3,5.5L3,5.5C1.6,5.5,0.5,4.4,0.5,3V0h5v3C5.5,4.4,4.4,5.5,3,5.5z"/></g>
<g transform="translate(264,432) scale(4.12)"><path d="M3,5.5L3,5.5C1.6,5.5,0.5,4.4,0.5,3V0h5v3C5.5,4.4,4.4,5.5,3,5.5z"/></g>
<g transform="translate(288,432) scale(4.12)"><rect x="0.5" width="5" height="6"/></g>
<g transform="translate(312,432) scale(4.12)"><path d="M3,5.5L3,5.5C1.6,5.5,0.5,4.4,0.5,3V0h5v3C5.5,4.4,4.4,5.5,3,5.5z"/></g>
<g transform="translate(336,432) scale(4.12)"><circle cx="3" cy="3" r="2.5"/></g>
<g transform="translate(408,432) scale(4.12)"><circle cx="3" cy="3" r="2.5"/></g>
<g transform="translate(504,432) scale(4.12)"><path d="M3,5.5L3,5.5C1.6,5.5,0.5,4.4,0.5,3V0h5v3C5.5,4.4,4.4,5.5,3,5.5z"/></g>
<g transform="translate(528,432) scale(4.12)"><path d="M3,5.5L3,5.5C1.6,5.5,0.5,4.4,0.5,3V0h5v3C5.5,4.4,4.4,5.5,3,5.5z"/></g>
<g transform="translate(552,432) scale(4.12)"><path d="M3,5.5L3,5.5C1.6,5.5,0.5,4.4,0.5,3V0h5v3C5.5,4.4,4.4,5.5,3,5.5z"/></g>
<g transform="translate(624,432) scale(4.12)"><rect x="0.5" width="5" height="6"/></g>
<g transform="translate(648,432) scale(4.12)"><circle cx="3" cy="3" r="2.5"/></g>
<g transform="translate(672,432) scale(4.12)"><path d="M3,5.5L3,5.5C1.6,5.5,0.5,4.4,0.5,3V0h5v3C5.5,4.4,4.4,5.5,3,5.5z"/></g>
<g transform="translate(744,432) scale(4.12)"><circle cx="3" cy="3" r="2.5"/></g>
<g transform="translate(768,432) scale(4.12)"><circle cx="3" cy="3" r="2.5"/></g>
<g transform="translate(816,432) scale(4.12)"><circle cx="3" cy="3" r="2.5"/></g>
<g transform="translate(864,432) scale(4.12)"><path d="M5.5,6h-5V3c0-1.4,1.1-2.5,2.5-2.5h0c1.4,0,2.5,1.1,2.5,2.5V6z"/></g>
<g transform="translate(888,432) scale(4.12)"><circle cx="3" cy="3" r="2.5"/></g>
<g transform="translate(912,432) scale(4.12)"><path d="M3,5.5L3,5.5C1.6,5.5,0.5,4.4,0.5,3V0h5v3C5.5,4.4,4.4,5.5,3,5.5z"/></g>
<g transform="translate(96,456) scale(4.12)"><path d="M5.5,6h-5V3c0-1.4,1.1-2.5,2.5-2.5h0c1.4,0,2.5,1.1,2.5,2.5V6z"/></g>
<g transform="translate(144,456) scale(4.12)"><circle cx="3" cy="3" r="2.5"/></g>
<g transform="translate(168,456) scale(4.12)"><path d="M3,5.5L3,5.5C1.6,5.5,0.5,4.4,0.5,3V0h5v3C5.5,4.4,4.4,5.5,3,5.5z"/></g>
<g transform="translate(216,456) scale(4.12)"><circle cx="3" cy="3" r="2.5"/></g>
<g transform="translate(288,456) scale(4.12)"><path d="M3,5.5L3,5.5C1.6,5.5,0.5,4.4,0.5,3V0h5v3C5.5,4.4,4.4,5.5,3,5.5z"/></g>
<g transform="translate(360,456) scale(4.12)"><circle cx="3" cy="3" r="2.5"/></g>
<g transform="translate(456,456) scale(4.12)"><circle cx="3" cy="3" r="2.5"/></g>
<g transform="translate(480,456) scale(4.12)"><path d="M5.5,6h-5V3c0-1.4,1.1-2.5,2.5-2.5h0c1.4,0,2.5,1.1,2.5,2.5V6z"/></g>
<g transform="translate(600,456) scale(4.12)"><circle cx="3" cy="3" r="2.5"/></g>
<g transform="translate(624,456) scale(4.12)"><rect x="0.5" width="5" height="6"/></g>
<g transform="translate(720,456) scale(4.12)"><path d="M5.5,6h-5V3c0-1.4,1.1-2.5,2.5-2.5h0c1.4,0,2.5,1.1,2.5,2.5V6z"/></g>
<g transform="translate(840,456) scale(4.12)"><path d="M5.5,6h-5V3c0-1.4,1.1-2.5,2.5-2.5h0c1.4,0,2.5,1.1,2.5,2.5V6z"/></g>
<g transform="translate(864,456) scale(4.12)"><path d="M3,5.5L3,5.5C1.6,5.5,0.5,4.4,0.5,3V0h5v3C5.5,4.4,4.4,5.5,3,5.5z"/></g>
<g transform="translate(48,480) scale(4.12)"><circle cx="3" cy="3" r="2.5"/></g>
<g transform="translate(72,480) scale(4.12)"><circle cx="3" cy="3" r="2.5"/></g>
<g transform="translate(96,480) scale(4.12)"><rect x="0.5" width="5" height="6"/></g>
<g transform="translate(120,480) scale(4.12)"><circle cx="3" cy="3" r="2.5"/></g>
<g transform="translate(192,480) scale(4.12)"><circle cx="3" cy="3" r="2.5"/></g>
<g transform="translate(240,480) scale(4.12)"><path d="M5.5,6h-5V3c0-1.4,1.1-2.5,2.5-2.5h0c1.4,0,2.5,1.1,2.5,2.5V6z"/></g>
<g transform="translate(264,480) scale(4.12)"><path d="M5.5,6h-5V3c0-1.4,1.1-2.5,2.5-2.5h0c1.4,0,2.5,1.1,2.5,2.5V6z"/></g>
<g transform="translate(336,480) scale(4.12)"><path d="M5.5,6h-5V3c0-1.4,1.1-2.5,2.5-2.5h0c1.4,0,2.5,1.1,2.5,2.5V6z"/></g>
<g transform="translate(384,480) scale(4.12)"><circle cx="3" cy="3" r="2.5"/></g>
<g transform="translate(480,480) scale(4.12)"><rect x="0.5" width="5" height="6"/></g>
<g transform="translate(528,480) scale(4.12)"><path d="M5.5,6h-5V3c0-1.4,1.1-2.5,2.5-2.5h0c1.4,0,2.5,1.1,2.5,2.5V6z"/></g>
<g transform="translate(552,480) scale(4.12)"><circle cx="3" cy="3" r="2.5"/></g>
<g transform="translate(624,480) scale(4.12)"><rect x="0.5" width="5" height="6"/></g>
<g transform="translate(672,480) scale(4.12)"><path d="M5.5,6h-5V3c0-1.4,1.1-2.5,2.5-2.5h0c1.4,0,2.5,1.1,2.5,2.5V6z"/></g>
<g transform="translate(696,480) scale(4.12)"><circle cx="3" cy="3" r="2.5"/></g>
<g transform="translate(720,480) scale(4.12)"><rect x="0.5" width="5" height="6"/></g>
<g transform="translate(744,480) scale(4.12)"><circle cx="3" cy="3" r="2.5"/></g>
<g transform="translate(816,480) scale(4.12)"><circle cx="3" cy="3" r="2.5"/></g>
<g transform="translate(840,480) scale(4.12)"><path d="M3,5.5L3,5.5C1.6,5.5,0.5,4.4,0.5,3V0h5v3C5.5,4.4,4.4,5.5,3,5.5z"/></g>
<g transform="translate(888,480) scale(4.12)"><circle cx="3" cy="3" r="2.5"/></g>
<g transform="translate(912,480) scale(4.12)"><circle cx="3" cy="3" r="2.5"/></g>
<g transform="translate(96,504) scale(4.12)"><path d="M3,5.5L3,5.5C1.6,5.5,0.5,4.4,0.5,3V0h5v3C5.5,4.4,4.4,5.5,3,5.5z"/></g>
<g transform="translate(240,504) scale(4.12)"><rect x="0.5" width="5" height="6"/></g>
<g transform="translate(264,504) scale(4.12)"><rect x="0.5" width="5" height="6"/></g>
<g transform="translate(288,504) scale(4.12)"><path d="M5.5,6h-5V3c0-1.4,1.1-2.5,2.5-2.5h0c1.4,0,2.5,1.1,2.5,2.5V6z"/></g>
<g transform="translate(312,504) scale(4.12)"><circle cx="3" cy="3" r="2.5"/></g>
<g transform="translate(336,504) scale(4.12)"><path d="M3,5.5L3,5.5C1.6,5.5,0.5,4.4,0.5,3V0h5v3C5.5,4.4,4.4,5.5,3,5.5z"/></g>
<g transform="translate(360,504) scale(4.12)"><path d="M5.5,6h-5V3c0-1.4,1.1-2.5,2.5-2.5h0c1.4,0,2.5,1.1,2.5,2.5V6z"/></g>
<g transform="translate(408,504) scale(4.12)"><circle cx="3" cy="3" r="2.5"/></g>
<g transform="translate(432,504) scale(4.12)"><path d="M5.5,6h-5V3c0-1.4,1.1-2.5,2.5-2.5h0c1.4,0,2.5,1.1,2.5,2.5V6z"/></g>
<g transform="translate(456,504) scale(4.12)"><circle cx="3" cy="3" r="2.5"/></g>
<g transform="translate(480,504) scale(4.12)"><path d="M3,5.5L3,5.5C1.6,5.5,0.5,4.4,0.5,3V0h5v3C5.5,4.4,4.4,5.5,3,5.5z"/></g>
<g transform="translate(504,504) scale(4.12)"><circle cx="3" cy="3" r="2.5"/></g>
<g transform="translate(528,504) scale(4.12)"><rect x="0.5" width="5" height="6"/></g>
<g transform="translate(576,504) scale(4.12)"><path d="M5.5,6h-5V3c0-1.4,1.1-2.5,2.5-2.5h0c1.4,0,2.5,1.1,2.5,2.5V6z"/></g>
<g transform="translate(624,504) scale(4.12)"><rect x="0.5" width="5" height="6"/></g>
<g transform="translate(672,504) scale(4.12)"><rect x="0.5" width="5" height="6"/></g>
<g transform="translate(720,504) scale(4.12)"><path d="M3,5.5L3,5.5C1.6,5.5,0.5,4.4,0.5,3V0h5v3C5.5,4.4,4.4,5.5,3,5.5z"/></g>
<g transform="translate(48,528) scale(4.12)"><circle cx="3" cy="3" r="2.5"/></g>
<g transform="translate(144,528) scale(4.12)"><circle cx="3" cy="3" r="2.5"/></g>
<g transform="translate(192,528) scale(4.12)"><circle cx="3" cy="3" r="2.5"/></g>
<g transform="translate(240,528) scale(4.12)"><path d="M3,5.5L3,5.5C1.6,5.5,0.5,4.4,0.5,3V0h5v3C5.5,4.4,4.4,5.5,3,5.5z"/></g>
<g transform="translate(264,528) scale(4.12)"><rect x="0.5" width="5" height="6"/></g>
<g transform="translate(288,528) scale(4.12)"><rect x="0.5" width="5" height="6"/></g>
<g transform="translate(360,528) scale(4.12)"><rect x="0.5" width="5" height="6"/></g>
<g transform="translate(432,528) scale(4.12)"><path d="M3,5.5L3,5.5C1.6,5.5,0.5,4.4,0.5,3V0h5v3C5.5,4.4,4.4,5.5,3,5.5z"/></g>
<g transform="translate(528,528) scale(4.12)"><rect x="0.5" width="5" height="6"/></g>
<g transform="translate(552,528) scale(4.12)"><path d="M5.5,6h-5V3c0-1.4,1.1-2.5,2.5-2.5h0c1.4,0,2.5,1.1,2.5,2.5V6z"/></g>
<g transform="translate(576,528) scale(4.12)"><rect x="0.5" width="5" height="6"/></g>
<g transform="translate(600,528) scale(4.12)"><path d="M5.5,6h-5V3c0-1.4,1.1-2.5,2.5-2.5h0c1.4,0,2.5,1.1,2.5,2.5V6z"/></g>
<g transform="translate(624,528) scale(4.12)"><rect x="0.5" width="5" height="6"/></g>
<g transform="translate(648,528) scale(4.12)"><circle cx="3" cy="3" r="2.5"/></g>
<g transform="translate(672,528) scale(4.12)"><path d="M3,5.5L3,5.5C1.6,5.5,0.5,4.4,0.5,3V0h5v3C5.5,4.4,4.4,5.5,3,5.5z"/></g>
<g transform="translate(744,528) scale(4.12)"><path d="M5.5,6h-5V3c0-1.4,1.1-2.5,2.5-2.5h0c1.4,0,2.5,1.1,2.5,2.5V6z"/></g>
<g transform="translate(768,528) scale(4.12)"><circle cx="3" cy="3" r="2.5"/></g>
<g transform="translate(792,528) scale(4.12)"><path d="M5.5,6h-5V3c0-1.4,1.1-2.5,2.5-2.5h0c1.4,0,2.5,1.1,2.5,2.5V6z"/></g>
<g transform="translate(816,528) scale(4.12)"><circle cx="3" cy="3" r="2.5"/></g>
<g transform="translate(864,528) scale(4.12)"><circle cx="3" cy="3" r="2.5"/></g>
<g transform="translate(888,528) scale(4.12)"><circle cx="3" cy="3" r="2.5"/></g>
<g transform="translate(912,528) scale(4.12)"><circle cx="3" cy="3" r="2.5"/></g>
<g transform="translate(168,552) scale(4.12)"><circle cx="3" cy="3" r="2.5"/></g>
<g transform="translate(216,552) scale(4.12)"><path d="M5.5,6h-5V3c0-1.4,1.1-2.5,2.5-2.5h0c1.4,0,2.5,1.1,2.5,2.5V6z"/></g>
<g transform="translate(264,552) scale(4.12)"><path d="M3,5.5L3,5.5C1.6,5.5,0.5,4.4,0.5,3V0h5v3C5.5,4.4,4.4,5.5,3,5.5z"/></g>
<g transform="translate(288,552) scale(4.12)"><path d="M3,5.5L3,5.5C1.6,5.5,0.5,4.4,0.5,3V0h5v3C5.5,4.4,4.4,5.5,3,5.5z"/></g>
<g transform="translate(336,552) scale(4.12)"><circle cx="3" cy="3" r="2.5"/></g>
<g transform="translate(360,552) scale(4.12)"><path d="M3,5.5L3,5.5C1.6,5.5,0.5,4.4,0.5,3V0h5v3C5.5,4.4,4.4,5.5,3,5.5z"/></g>
<g transform="translate(384,552) scale(4.12)"><path d="M5.5,6h-5V3c0-1.4,1.1-2.5,2.5-2.5h0c1.4,0,2.5,1.1,2.5,2.5V6z"/></g>
<g transform="translate(456,552) scale(4.12)"><path d="M5.5,6h-5V3c0-1.4,1.1-2.5,2.5-2.5h0c1.4,0,2.5,1.1,2.5,2.5V6z"/></g>
<g transform="translate(528,552) scale(4.12)"><rect x="0.5" width="5" height="6"/></g>
<g transform="translate(552,552) scale(4.12)"><rect x="0.5" width="5" height="6"/></g>
<g transform="translate(576,552) scale(4.12)"><path d="M3,5.5L3,5.5C1.6,5.5,0.5,4.4,0.5,3V0h5v3C5.5,4.4,4.4,5.5,3,5.5z"/></g>
<g transform="translate(600,552) scale(4.12)"><rect x="0.5" width="5" height="6"/></g>
<g transform="translate(624,552) scale(4.12)"><rect x="0.5" width="5" height="6"/></g>
<g transform="translate(744,552) scale(4.12)"><path d="M3,5.5L3,5.5C1.6,5.5,0.5,4.4,0.5,3V0h5v3C5.5,4.4,4.4,5.5,3,5.5z"/></g>
<g transform="translate(792,552) scale(4.12)"><path d="M3,5.5L3,5.5C1.6,5.5,0.5,4.4,0.5,3V0h5v3C5.5,4.4,4.4,5.5,3,5.5z"/></g>
<g transform="translate(48,576) scale(4.12)"><path d="M5.5,6h-5V3c0-1.4,1.1-2.5,2.5-2.5h0c1.4,0,2.5,1.1,2.5,2.5V6z"/></g>
<g transform="translate(96,576) scale(4.12)"><path d="M5.5,6h-5V3c0-1.4,1.1-2.5,2.5-2.5h0c1.4,0,2.5,1.1,2.5,2.5V6z"/></g>
<g transform="translate(120,576) scale(4.12)"><circle cx="3" cy="3" r="2.5"/></g>
<g transform="translate(192,576) scale(4.12)"><circle cx="3" cy="3" r="2.5"/></g>
<g transform="translate(216,576) scale(4.12)"><rect x="0.5" width="5" height="6"/></g>
<g transform="translate(240,576) scale(4.12)"><circle cx="3" cy="3" r="2.5"/></g>
<g transform="translate(384,576) scale(4.12)"><path d="M3,5.5L3,5.5C1.6,5.5,0.5,4.4,0.5,3V0h5v3C5.5,4.4,4.4,5.5,3,5.5z"/></g>
<g transform="translate(408,576) scale(4.12)"><path d="M5.5,6h-5V3c0-1.4,1.1-2.5,2.5-2.5h0c1.4,0,2.5,1.1,2.5,2.5V6z"/></g>
<g transform="translate(432,576) scale(4.12)"><circle cx="3" cy="3" r="2.5"/></g>
<g transform="translate(456,576) scale(4.12)"><rect x="0.5" width="5" height="6"/></g>
<g transform="translate(480,576) scale(4.12)"><path d="M5.5,6h-5V3c0-1.4,1.1-2.5,2.5-2.5h0c1.4,0,2.5,1.1,2.5,2.5V6z"/></g>
<g transform="translate(528,576) scale(4.12)"><path d="M3,5.5L3,5.5C1.6,5.5,0.5,4.4,0.5,3V0h5v3C5.5,4.4,4.4,5.5,3,5.5z"/></g>
<g transform="translate(552,576) scale(4.12)"><path d="M3,5.5L3,5.5C1.6,5.5,0.5,4.4,0.5,3V0h5v3C5.5,4.4,4.4,5.5,3,5.5z"/></g>
<g transform="translate(600,576) scale(4.12)"><rect x="0.5" width="5" height="6"/></g>
<g transform="translate(624,576) scale(4.12)"><rect x="0.5" width="5" height="6"/></g>
<g transform="translate(696,576) scale(4.12)"><circle cx="3" cy="3" r="2.5"/></g>
<g transform="translate(768,576) scale(4.12)"><circle cx="3" cy="3" r="2.5"/></g>
<g transform="translate(888,576) scale(4.12)"><path d="M5.5,6h-5V3c0-1.4,1.1-2.5,2.5-2.5h0c1.4,0,2.5,1.1,2.5,2.5V6z"/></g>
<g transform="translate(912,576) scale(4.12)"><circle cx="3" cy="3" r="2.5"/></g>
<g transform="translate(48,600) scale(4.12)"><path d="M3,5.5L3,5.5C1.6,5.5,0.5,4.4,0.5,3V0h5v3C5.5,4.4,4.4,5.5,3,5.5z"/></g>
<g transform="translate(96,600) scale(4.12)"><path d="M3,5.5L3,5.5C1.6,5.5,0.5,4.4,0.5,3V0h5v3C5.5,4.4,4.4,5.5,3,5.5z"/></g>
<g transform="translate(144,600) scale(4.12)"><circle cx="3" cy="3" r="2.5"/></g>
<g transform="translate(216,600) scale(4.12)"><rect x="0.5" width="5" height="6"/></g>
<g transform="translate(312,600) scale(4.12)"><circle cx="3" cy="3" r="2.5"/></g>
<g transform="translate(336,600) scale(4.12)"><circle cx="3" cy="3" r="2.5"/></g>
<g transform="translate(360,600) scale(4.12)"><path d="M5.5,6h-5V3c0-1.4,1.1-2.5,2.5-2.5h0c1.4,0,2.5,1.1,2.5,2.5V6z"/></g>
<g transform="translate(408,600) scale(4.12)"><path d="M3,5.5L3,5.5C1.6,5.5,0.5,4.4,0.5,3V0h5v3C5.5,4.4,4.4,5.5,3,5.5z"/></g>
<g transform="translate(456,600) scale(4.12)"><path d="M3,5.5L3,5.5C1.6,5.5,0.5,4.4,0.5,3V0h5v3C5.5,4.4,4.4,5.5,3,5.5z"/></g>
<g transform="translate(480,600) scale(4.12)"><rect x="0.5" width="5" height="6"/></g>
<g transform="translate(504,600) scale(4.12)"><circle cx="3" cy="3" r="2.5"/></g>
<g transform="translate(600,600) scale(4.12)"><path d="M3,5.5L3,5.5C1.6,5.5,0.5,4.4,0.5,3V0h5v3C5.5,4.4,4.4,5.5,3,5.5z"/></g>
<g transform="translate(624,600) scale(4.12)"><path d="M3,5.5L3,5.5C1.6,5.5,0.5,4.4,0.5,3V0h5v3C5.5,4.4,4.4,5.5,3,5.5z"/></g>
<g transform="translate(672,600) scale(4.12)"><circle cx="3" cy="3" r="2.5"/></g>
<g transform="translate(792,600) scale(4.12)"><circle cx="3" cy="3" r="2.5"/></g>
<g transform="translate(888,600) scale(4.12)"><rect x="0.5" width="5" height="6"/></g>
<g transform="translate(72,624) scale(4.12)"><circle cx="3" cy="3" r="2.5"/></g>
<g transform="translate(120,624) scale(4.12)"><circle cx="3" cy="3" r="2.5"/></g>
<g transform="translate(192,624) scale(4.12)"><circle cx="3" cy="3" r="2.5"/></g>
<g transform="translate(216,624) scale(4.12)"><rect x="0.5" width="5" height="6"/></g>
<g transform="translate(240,624) scale(4.12)"><circle cx="3" cy="3" r="2.5"/></g>
<g transform="translate(360,624) scale(4.12)"><path d="M3,5.5L3,5.5C1.6,5.5,0.5,4.4,0.5,3V0h5v3C5.5,4.4,4.4,5.5,3,5.5z"/></g>
<g transform="translate(432,624) scale(4.12)"><path d="M5.5,6h-5V3c0-1.4,1.1-2.5,2.5-2.5h0c1.4,0,2.5,1.1,2.5,2.5V6z"/></g>
<g transform="translate(480,624) scale(4.12)"><path d="M3,5.5L3,5.5C1.6,5.5,0.5,4.4,0.5,3V0h5v3C5.5,4.4,4.4,5.5,3,5.5z"/></g>
<g transform="translate(528,624) scale(4.12)"><path d="M5.5,6h-5V3c0-1.4,1.1-2.5,2.5-2.5h0c1.4,0,2.5,1.1,2.5,2.5V6z"/></g>
<g transform="translate(576,624) scale(4.12)"><circle cx="3" cy="3" r="2.5"/></g>
<g transform="translate(768,624) scale(4.12)"><path d="M5.5,6h-5V3c0-1.4,1.1-2.5,2.5-2.5h0c1.4,0,2.5,1.1,2.5,2.5V6z"/></g>
<g transform="translate(816,624) scale(4.12)"><circle cx="3" cy="3" r="2.5"/></g>
<g transform="translate(840,624) scale(4.12)"><path d="M5.5,6h-5V3c0-1.4,1.1-2.5,2.5-2.5h0c1.4,0,2.5,1.1,2.5,2.5V6z"/></g>
<g transform="translate(864,624) scale(4.12)"><circle cx="3" cy="3" r="2.5"/></g>
<g transform="translate(888,624) scale(4.12)"><path d="M3,5.5L3,5.5C1.6,5.5,0.5,4.4,0.5,3V0h5v3C5.5,4.4,4.4,5.5,3,5.5z"/></g>
<g transform="translate(48,648) scale(4.12)"><path d="M5.5,6h-5V3c0-1.4,1.1-2.5,2.5-2.5h0c1.4,0,2.5,1.1,2.5,2.5V6z"/></g>
<g transform="translate(168,648) scale(4.12)"><path d="M5.5,6h-5V3c0-1.4,1.1-2.5,2.5-2.5h0c1.4,0,2.5,1.1,2.5,2.5V6z"/></g>
<g transform="translate(216,648) scale(4.12)"><path d="M3,5.5L3,5.5C1.6,5.5,0.5,4.4,0.5,3V0h5v3C5.5,4.4,4.4,5.5,3,5.5z"/></g>
<g transform="translate(384,648) scale(4.12)"><path d="M5.5,6h-5V3c0-1.4,1.1-2.5,2.5-2.5h0c1.4,0,2.5,1.1,2.5,2.5V6z"/></g>
<g transform="translate(408,648) scale(4.12)"><circle cx="3" cy="3" r="2.5"/></g>
<g transform="translate(432,648) scale(4.12)"><rect x="0.5" width="5" height="6"/></g>
<g transform="translate(528,648) scale(4.12)"><path d="M3,5.5L3,5.5C1.6,5.5,0.5,4.4,0.5,3V0h5v3C5.5,4.4,4.4,5.5,3,5.5z"/></g>
<g transform="translate(624,648) scale(4.12)"><circle cx="3" cy="3" r="2.5"/></g>
<g transform="translate(672,648) scale(4.12)"><path d="M5.5,6h-5V3c0-1.4,1.1-2.5,2.5-2.5h0c1.4,0,2.5,1.1,2.5,2.5V6z"/></g>
<g transform="translate(696,648) scale(4.12)"><circle cx="3" cy="3" r="2.5"/></g>
<g transform="translate(720,648) scale(4.12)"><circle cx="3" cy="3" r="2.5"/></g>
<g transform="translate(768,648) scale(4.12)"><rect x="0.5" width="5" height="6"/></g>
<g transform="translate(792,648) scale(4.12)"><circle cx="3" cy="3" r="2.5"/></g>
<g transform="translate(840,648) scale(4.12)"><path d="M3,5.5L3,5.5C1.6,5.5,0.5,4.4,0.5,3V0h5v3C5.5,4.4,4.4,5.5,3,5.5z"/></g>
<g transform="translate(48,672) scale(4.12)"><rect x="0.5" width="5" height="6"/></g>
<g transform="translate(96,672) scale(4.12)"><circle cx="3" cy="3" r="2.5"/></g>
<g transform="translate(144,672) scale(4.12)"><path d="M5.5,6h-5V3c0-1.4,1.1-2.5,2.5-2.5h0c1.4,0,2.5,1.1,2.5,2.5V6z"/></g>
<g transform="translate(168,672) scale(4.12)"><path d="M3,5.5L3,5.5C1.6,5.5,0.5,4.4,0.5,3V0h5v3C5.5,4.4,4.4,5.5,3,5.5z"/></g>
<g transform="translate(192,672) scale(4.12)"><circle cx="3" cy="3" r="2.5"/></g>
<g transform="translate(288,672) scale(4.12)"><circle cx="3" cy="3" r="2.5"/></g>
<g transform="translate(312,672) scale(4.12)"><path d="M5.5,6h-5V3c0-1.4,1.1-2.5,2.5-2.5h0c1.4,0,2.5,1.1,2.5,2.5V6z"/></g>
<g transform="translate(360,672) scale(4.12)"><circle cx="3" cy="3" r="2.5"/></g>
<g transform="translate(384,672) scale(4.12)"><rect x="0.5" width="5" height="6"/></g>
<g transform="translate(432,672) scale(4.12)"><path d="M3,5.5L3,5.5C1.6,5.5,0.5,4.4,0.5,3V0h5v3C5.5,4.4,4.4,5.5,3,5.5z"/></g>
<g transform="translate(456,672) scale(4.12)"><circle cx="3" cy="3" r="2.5"/></g>
<g transform="translate(504,672) scale(4.12)"><path d="M5.5,6h-5V3c0-1.4,1.1-2.5,2.5-2.5h0c1.4,0,2.5,1.1,2.5,2.5V6z"/></g>
<g transform="translate(552,672) scale(4.12)"><path d="M5.5,6h-5V3c0-1.4,1.1-2.5,2.5-2.5h0c1.4,0,2.5,1.1,2.5,2.5V6z"/></g>
<g transform="translate(648,672) scale(4.12)"><circle cx="3" cy="3" r="2.5"/></g>
<g transform="translate(672,672) scale(4.12)"><rect x="0.5" width="5" height="6"/></g>
<g transform="translate(768,672) scale(4.12)"><path d="M3,5.5L3,5.5C1.6,5.5,0.5,4.4,0.5,3V0h5v3C5.5,4.4,4.4,5.5,3,5.5z"/></g>
<g transform="translate(888,672) scale(4.12)"><circle cx="3" cy="3" r="2.5"/></g>
<g transform="translate(912,672) scale(4.12)"><path d="M5.5,6h-5V3c0-1.4,1.1-2.5,2.5-2.5h0c1.4,0,2.5,1.1,2.5,2.5V6z"/></g>
<g transform="translate(48,696) scale(4.12)"><rect x="0.5" width="5" height="6"/></g>
<g transform="translate(144,696) scale(4.12)"><rect x="0.5" width="5" height="6"/></g>
<g transform="translate(216,696) scale(4.12)"><path d="M5.5,6h-5V3c0-1.4,1.1-2.5,2.5-2.5h0c1.4,0,2.5,1.1,2.5,2.5V6z"/></g>
<g transform="translate(264,696) scale(4.12)"><circle cx="3" cy="3" r="2.5"/></g>
<g transform="translate(312,696) scale(4.12)"><rect x="0.5" width="5" height="6"/></g>
<g transform="translate(336,696) scale(4.12)"><path d="M5.5,6h-5V3c0-1.4,1.1-2.5,2.5-2.5h0c1.4,0,2.5,1.1,2.5,2.5V6z"/></g>
<g transform="translate(384,696) scale(4.12)"><rect x="0.5" width="5" height="6"/></g>
<g transform="translate(504,696) scale(4.12)"><rect x="0.5" width="5" height="6"/></g>
<g transform="translate(528,696) scale(4.12)"><circle cx="3" cy="3" r="2.5"/></g>
<g transform="translate(552,696) scale(4.12)"><path d="M3,5.5L3,5.5C1.6,5.5,0.5,4.4,0.5,3V0h5v3C5.5,4.4,4.4,5.5,3,5.5z"/></g>
<g transform="translate(576,696) scale(4.12)"><path d="M5.5,6h-5V3c0-1.4,1.1-2.5,2.5-2.5h0c1.4,0,2.5,1.1,2.5,2.5V6z"/></g>
<g transform="translate(624,696) scale(4.12)"><path d="M5.5,6h-5V3c0-1.4,1.1-2.5,2.5-2.5h0c1.4,0,2.5,1.1,2.5,2.5V6z"/></g>
<g transform="translate(672,696) scale(4.12)"><rect x="0.5" width="5" height="6"/></g>
<g transform="translate(720,696) scale(4.12)"><path d="M5.5,6h-5V3c0-1.4,1.1-2.5,2.5-2.5h0c1.4,0,2.5,1.1,2.5,2.5V6z"/></g>
<g transform="translate(744,696) scale(4.12)"><path d="M5.5,6h-5V3c0-1.4,1.1-2.5,2.5-2.5h0c1.4,0,2.5,1.1,2.5,2.5V6z"/></g>
<g transform="translate(792,696) scale(4.12)"><path d="M5.5,6h-5V3c0-1.4,1.1-2.5,2.5-2.5h0c1.4,0,2.5,1.1,2.5,2.5V6z"/></g>
<g transform="translate(912,696) scale(4.12)"><path d="M3,5.5L3,5.5C1.6,5.5,0.5,4.4,0.5,3V0h5v3C5.5,4.4,4.4,5.5,3,5.5z"/></g>
<g transform="translate(48,720) scale(4.12)"><path d="M3,5.5L3,5.5C1.6,5.5,0.5,4.4,0.5,3V0h5v3C5.5,4.4,4.4,5.5,3,5.5z"/></g>
<g transform="translate(144,720) scale(4.12)"><path d="M3,5.5L3,5.5C1.6,5.5,0.5,4.4,0.5,3V0h5v3C5.5,4.4,4.4,5.5,3,5.5z"/></g>
<g transform="translate(192,720) scale(4.12)"><circle cx="3" cy="3" r="2.5"/></g>
<g transform="translate(216,720) scale(4.12)"><path d="M3,5.5L3,5.5C1.6,5.5,0.5,4.4,0.5,3V0h5v3C5.5,4.4,4.4,5.5,3,5.5z"/></g>
<g transform="translate(240,720) scale(4.12)"><path d="M5.5,6h-5V3c0-1.4,1.1-2.5,2.5-2.5h0c1.4,0,2.5,1.1,2.5,2.5V6z"/></g>
<g transform="translate(288,720) scale(4.12)"><circle cx="3" cy="3" r="2.5"/></g>
<g transform="translate(312,720) scale(4.12)"><rect x="0.5" width="5" height="6"/></g>
<g transform="translate(336,720) scale(4.12)"><rect x="0.5" width="5" height="6"/></g>
<g transform="translate(360,720) scale(4.12)"><path d="M5.5,6h-5V3c0-1.4,1.1-2.5,2.5-2.5h0c1.4,0,2.5,1.1,2.5,2.5V6z"/></g>
<g transform="translate(384,720) scale(4.12)"><rect x="0.5" width="5" height="6"/></g>
<g transform="translate(408,720) scale(4.12)"><path d="M5.5,6h-5V3c0-1.4,1.1-2.5,2.5-2.5h0c1.4,0,2.5,1.1,2.5,2.5V6z"/></g>
<g transform="translate(504,720) scale(4.12)"><path d="M3,5.5L3,5.5C1.6,5.5,0.5,4.4,0.5,3V0h5v3C5.5,4.4,4.4,5.5,3,5.5z"/></g>
<g transform="translate(576,720) scale(4.12)"><path d="M3,5.5L3,5.5C1.6,5.5,0.5,4.4,0.5,3V0h5v3C5.5,4.4,4.4,5.5,3,5.5z"/></g>
<g transform="translate(624,720) scale(4.12)"><path d="M3,5.5L3,5.5C1.6,5.5,0.5,4.4,0.5,3V0h5v3C5.5,4.4,4.4,5.5,3,5.5z"/></g>
<g transform="translate(648,720) scale(4.12)"><path d="M5.5,6h-5V3c0-1.4,1.1-2.5,2.5-2.5h0c1.4,0,2.5,1.1,2.5,2.5V6z"/></g>
<g transform="translate(672,720) scale(4.12)"><path d="M3,5.5L3,5.5C1.6,5.5,0.5,4.4,0.5,3V0h5v3C5.5,4.4,4.4,5.5,3,5.5z"/></g>
<g transform="translate(720,720) scale(4.12)"><rect x="0.5" width="5" height="6"/></g>
<g transform="translate(744,720) scale(4.12)"><path d="M3,5.5L3,5.5C1.6,5.5,0.5,4.4,0.5,3V0h5v3C5.5,4.4,4.4,5.5,3,5.5z"/></g>
<g transform="translate(768,720) scale(4.12)"><circle cx="3" cy="3" r="2.5"/></g>
<g transform="translate(792,720) scale(4.12)"><path d="M3,5.5L3,5.5C1.6,5.5,0.5,4.4,0.5,3V0h5v3C5.5,4.4,4.4,5.5,3,5.5z"/></g>
<g transform="translate(816,720) scale(4.12)"><path d="M5.5,6h-5V3c0-1.4,1.1-2.5,2.5-2.5h0c1.4,0,2.5,1.1,2.5,2.5V6z"/></g>
<g transform="translate(864,720) scale(4.12)"><circle cx="3" cy="3" r="2.5"/></g>
<g transform="translate(888,720) scale(4.12)"><path d="M5.5,6h-5V3c0-1.4,1.1-2.5,2.5-2.5h0c1.4,0,2.5,1.1,2.5,2.5V6z"/></g>
<g transform="translate(240,744) scale(4.12)"><path d="M3,5.5L3,5.5C1.6,5.5,0.5,4.4,0.5,3V0h5v3C5.5,4.4,4.4,5.5,3,5.5z"/></g>
<g transform="translate(264,744) scale(4.12)"><path d="M5.5,6h-5V3c0-1.4,1.1-2.5,2.5-2.5h0c1.4,0,2.5,1.1,2.5,2.5V6z"/></g>
<g transform="translate(312,744) scale(4.12)"><path d="M3,5.5L3,5.5C1.6,5.5,0.5,4.4,0.5,3V0h5v3C5.5,4.4,4.4,5.5,3,5.5z"/></g>
<g transform="translate(336,744) scale(4.12)"><path d="M3,5.5L3,5.5C1.6,5.5,0.5,4.4,0.5,3V0h5v3C5.5,4.4,4.4,5.5,3,5.5z"/></g>
<g transform="translate(360,744) scale(4.12)"><path d="M3,5.5L3,5.5C1.6,5.5,0.5,4.4,0.5,3V0h5v3C5.5,4.4,4.4,5.5,3,5.5z"/></g>
<g transform="translate(384,744) scale(4.12)"><path d="M3,5.5L3,5.5C1.6,5.5,0.5,4.4,0.5,3V0h5v3C5.5,4.4,4.4,5.5,3,5.5z"/></g>
<g transform="translate(408,744) scale(4.12)"><rect x="0.5" width="5" height="6"/></g>
<g transform="translate(552,744) scale(4.12)"><path d="M5.5,6h-5V3c0-1.4,1.1-2.5,2.5-2.5h0c1.4,0,2.5,1.1,2.5,2.5V6z"/></g>
<g transform="translate(600,744) scale(4.12)"><circle cx="3" cy="3" r="2.5"/></g>
<g transform="translate(648,744) scale(4.12)"><path d="M3,5.5L3,5.5C1.6,5.5,0.5,4.4,0.5,3V0h5v3C5.5,4.4,4.4,5.5,3,5.5z"/></g>
<g transform="translate(696,744) scale(4.12)"><circle cx="3" cy="3" r="2.5"/></g>
<g transform="translate(720,744) scale(4.12)"><rect x="0.5" width="5" height="6"/></g>
<g transform="translate(816,744) scale(4.12)"><rect x="0.5" width="5" height="6"/></g>
<g transform="translate(888,744) scale(4.12)"><rect x="0.5" width="5" height="6"/></g>
<g transform="translate(264,768) scale(4.12)"><rect x="0.5" width="5" height="6"/></g>
<g transform="translate(408,768) scale(4.12)"><rect x="0.5" width="5" height="6"/></g>
<g transform="translate(504,768) scale(4.12)"><path d="M5.5,6h-5V3c0-1.4,1.1-2.5,2.5-2.5h0c1.4,0,2.5,1.1,2.5,2.5V6z"/></g>
<g transform="translate(552,768) scale(4.12)"><rect x="0.5" width="5" height="6"/></g>
<g transform="translate(576,768) scale(4.12)"><circle cx="3" cy="3" r="2.5"/></g>
<g transform="translate(720,768) scale(4.12)"><rect x="0.5" width="5" height="6"/></g>
<g transform="translate(768,768) scale(4.12)"><circle cx="3" cy="3" r="2.5"/></g>
<g transform="translate(816,768) scale(4.12)"><rect x="0.5" width="5" height="6"/></g>
<g transform="translate(840,768) scale(4.12)"><circle cx="3" cy="3" r="2.5"/></g>
<g transform="translate(888,768) scale(4.12)"><rect x="0.5" width="5" height="6"/></g>
<g transform="translate(912,768) scale(4.12)"><path d="M5.5,6h-5V3c0-1.4,1.1-2.5,2.5-2.5h0c1.4,0,2.5,1.1,2.5,2.5V6z"/></g>
<g transform="translate(264,792) scale(4.12)"><rect x="0.5" width="5" height="6"/></g>
<g transform="translate(336,792) scale(4.12)"><path d="M5.5,6h-5V3c0-1.4,1.1-2.5,2.5-2.5h0c1.4,0,2.5,1.1,2.5,2.5V6z"/></g>
<g transform="translate(360,792) scale(4.12)"><circle cx="3" cy="3" r="2.5"/></g>
<g transform="translate(408,792) scale(4.12)"><rect x="0.5" width="5" height="6"/></g>
<g transform="translate(432,792) scale(4.12)"><circle cx="3" cy="3" r="2.5"/></g>
<g transform="translate(456,792) scale(4.12)"><path d="M5.5,6h-5V3c0-1.4,1.1-2.5,2.5-2.5h0c1.4,0,2.5,1.1,2.5,2.5V6z"/></g>
<g transform="translate(480,792) scale(4.12)"><path d="M5.5,6h-5V3c0-1.4,1.1-2.5,2.5-2.5h0c1.4,0,2.5,1.1,2.5,2.5V6z"/></g>
<g transform="translate(504,792) scale(4.12)"><rect x="0.5" width="5" height="6"/></g>
<g transform="translate(528,792) scale(4.12)"><circle cx="3" cy="3" r="2.5"/></g>
<g transform="translate(552,792) scale(4.12)"><path d="M3,5.5L3,5.5C1.6,5.5,0.5,4.4,0.5,3V0h5v3C5.5,4.4,4.4,5.5,3,5.5z"/></g>
<g transform="translate(600,792) scale(4.12)"><circle cx="3" cy="3" r="2.5"/></g>
<g transform="translate(624,792) scale(4.12)"><path d="M5.5,6h-5V3c0-1.4,1.1-2.5,2.5-2.5h0c1.4,0,2.5,1.1,2.5,2.5V6z"/></g>
<g transform="translate(672,792) scale(4.12)"><path d="M5.5,6h-5V3c0-1.4,1.1-2.5,2.5-2.5h0c1.4,0,2.5,1.1,2.5,2.5V6z"/></g>
<g transform="translate(696,792) scale(4.12)"><path d="M5.5,6h-5V3c0-1.4,1.1-2.5,2.5-2.5h0c1.4,0,2.5,1.1,2.5,2.5V6z"/></g>
<g transform="translate(720,792) scale(4.12)"><rect x="0.5" width="5" height="6"/></g>
<g transform="translate(816,792) scale(4.12)"><rect x="0.5" width="5" height="6"/></g>
<g transform="translate(888,792) scale(4.12)"><path d="M3,5.5L3,5.5C1.6,5.5,0.5,4.4,0.5,3V0h5v3C5.5,4.4,4.4,5.5,3,5.5z"/></g>
<g transform="translate(912,792) scale(4.12)"><path d="M3,5.5L3,5.5C1.6,5.5,0.5,4.4,0.5,3V0h5v3C5.5,4.4,4.4,5.5,3,5.5z"/></g>
<g transform="translate(240,816) scale(4.12)"><path d="M5.5,6h-5V3c0-1.4,1.1-2.5,2.5-2.5h0c1.4,0,2.5,1.1,2.5,2.5V6z"/></g>
<g transform="translate(264,816) scale(4.12)"><rect x="0.5" width="5" height="6"/></g>
<g transform="translate(312,816) scale(4.12)"><circle cx="3" cy="3" r="2.5"/></g>
<g transform="translate(336,816) scale(4.12)"><path d="M3,5.5L3,5.5C1.6,5.5,0.5,4.4,0.5,3V0h5v3C5.5,4.4,4.4,5.5,3,5.5z"/></g>
<g transform="translate(384,816) scale(4.12)"><path d="M5.5,6h-5V3c0-1.4,1.1-2.5,2.5-2.5h0c1.4,0,2.5,1.1,2.5,2.5V6z"/></g>
<g transform="translate(408,816) scale(4.12)"><rect x="0.5" width="5" height="6"/></g>
<g transform="translate(456,816) scale(4.12)"><path d="M3,5.5L3,5.5C1.6,5.5,0.5,4.4,0.5,3V0h5v3C5.5,4.4,4.4,5.5,3,5.5z"/></g>
<g transform="translate(480,816) scale(4.12)"><rect x="0.5" width="5" height="6"/></g>
<g transform="translate(504,816) scale(4.12)"><rect x="0.5" width="5" height="6"/></g>
<g transform="translate(624,816) scale(4.12)"><path d="M3,5.5L3,5.5C1.6,5.5,0.5,4.4,0.5,3V0h5v3C5.5,4.4,4.4,5.5,3,5.5z"/></g>
<g transform="translate(648,816) scale(4.12)"><path d="M5.5,6h-5V3c0-1.4,1.1-2.5,2.5-2.5h0c1.4,0,2.5,1.1,2.5,2.5V6z"/></g>
<g transform="translate(672,816) scale(4.12)"><path d="M3,5.5L3,5.5C1.6,5.5,0.5,4.4,0.5,3V0h5v3C5.5,4.4,4.4,5.5,3,5.5z"/></g>
<g transform="translate(696,816) scale(4.12)"><path d="M3,5.5L3,5.5C1.6,5.5,0.5,4.4,0.5,3V0h5v3C5.5,4.4,4.4,5.5,3,5.5z"/></g>
<g transform="translate(720,816) scale(4.12)"><rect x="0.5" width="5" height="6"/></g>
<g transform="translate(744,816) scale(4.12)"><circle cx="3" cy="3" r="2.5"/></g>
<g transform="translate(768,816) scale(4.12)"><path d="M5.5,6h-5V3c0-1.4,1.1-2.5,2.5-2.5h0c1.4,0,2.5,1.1,2.5,2.5V6z"/></g>
<g transform="translate(792,816) scale(4.12)"><circle cx="3" cy="3" r="2.5"/></g>
<g transform="translate(816,816) scale(4.12)"><rect x="0.5" width="5" height="6"/></g>
<g transform="translate(864,816) scale(4.12)"><circle cx="3" cy="3" r="2.5"/></g>
<g transform="translate(240,840) scale(4.12)"><rect x="0.5" width="5" height="6"/></g>
<g transform="translate(264,840) scale(4.12)"><rect x="0.5" width="5" height="6"/></g>
<g transform="translate(288,840) scale(4.12)"><path d="M5.5,6h-5V3c0-1.4,1.1-2.5,2.5-2.5h0c1.4,0,2.5,1.1,2.5,2.5V6z"/></g>
<g transform="translate(384,840) scale(4.12)"><rect x="0.5" width="5" height="6"/></g>
<g transform="translate(408,840) scale(4.12)"><rect x="0.5" width="5" height="6"/></g>
<g transform="translate(480,840) scale(4.12)"><rect x="0.5" width="5" height="6"/></g>
<g transform="translate(504,840) scale(4.12)"><path d="M3,5.5L3,5.5C1.6,5.5,0.5,4.4,0.5,3V0h5v3C5.5,4.4,4.4,5.5,3,5.5z"/></g>
<g transform="translate(552,840) scale(4.12)"><circle cx="3" cy="3" r="2.5"/></g>
<g transform="translate(576,840) scale(4.12)"><circle cx="3" cy="3" r="2.5"/></g>
<g transform="translate(648,840) scale(4.12)"><path d="M3,5.5L3,5.5C1.6,5.5,0.5,4.4,0.5,3V0h5v3C5.5,4.4,4.4,5.5,3,5.5z"/></g>
<g transform="translate(720,840) scale(4.12)"><path d="M3,5.5L3,5.5C1.6,5.5,0.5,4.4,0.5,3V0h5v3C5.5,4.4,4.4,5.5,3,5.5z"/></g>
<g transform="translate(768,840) scale(4.12)"><path d="M3,5.5L3,5.5C1.6,5.5,0.5,4.4,0.5,3V0h5v3C5.5,4.4,4.4,5.5,3,5.5z"/></g>
<g transform="translate(816,840) scale(4.12)"><path d="M3,5.5L3,5.5C1.6,5.5,0.5,4.4,0.5,3V0h5v3C5.5,4.4,4.4,5.5,3,5.5z"/></g>
<g transform="translate(240,864) scale(4.12)"><path d="M3,5.5L3,5.5C1.6,5.5,0.5,4.4,0.5,3V0h5v3C5.5,4.4,4.4,5.5,3,5.5z"/></g>
<g transform="translate(264,864) scale(4.12)"><rect x="0.5" width="5" height="6"/></g>
<g transform="translate(288,864) scale(4.12)"><path d="M3,5.5L3,5.5C1.6,5.5,0.5,4.4,0.5,3V0h5v3C5.5,4.4,4.4,5.5,3,5.5z"/></g>
<g transform="translate(384,864) scale(4.12)"><path d="M3,5.5L3,5.5C1.6,5.5,0.5,4.4,0.5,3V0h5v3C5.5,4.4,4.4,5.5,3,5.5z"/></g>
<g transform="translate(408,864) scale(4.12)"><path d="M3,5.5L3,5.5C1.6,5.5,0.5,4.4,0.5,3V0h5v3C5.5,4.4,4.4,5.5,3,5.5z"/></g>
<g transform="translate(432,864) scale(4.12)"><path d="M5.5,6h-5V3c0-1.4,1.1-2.5,2.5-2.5h0c1.4,0,2.5,1.1,2.5,2.5V6z"/></g>
<g transform="translate(456,864) scale(4.12)"><path d="M5.5,6h-5V3c0-1.4,1.1-2.5,2.5-2.5h0c1.4,0,2.5,1.1,2.5,2.5V6z"/></g>
<g transform="translate(480,864) scale(4.12)"><rect x="0.5" width="5" height="6"/></g>
<g transform="translate(528,864) scale(4.12)"><path d="M5.5,6h-5V3c0-1.4,1.1-2.5,2.5-2.5h0c1.4,0,2.5,1.1,2.5,2.5V6z"/></g>
<g transform="translate(600,864) scale(4.12)"><path d="M5.5,6h-5V3c0-1.4,1.1-2.5,2.5-2.5h0c1.4,0,2.5,1.1,2.5,2.5V6z"/></g>
<g transform="translate(624,864) scale(4.12)"><circle cx="3" cy="3" r="2.5"/></g>
<g transform="translate(672,864) scale(4.12)"><circle cx="3" cy="3" r="2.5"/></g>
<g transform="translate(696,864) scale(4.12)"><path d="M5.5,6h-5V3c0-1.4,1.1-2.5,2.5-2.5h0c1.4,0,2.5,1.1,2.5,2.5V6z"/></g>
<g transform="translate(744,864) scale(4.12)"><circle cx="3" cy="3" r="2.5"/></g>
<g transform="translate(792,864) scale(4.12)"><circle cx="3" cy="3" r="2.5"/></g>
<g transform="translate(912,864) scale(4.12)"><path d="M5.5,6h-5V3c0-1.4,1.1-2.5,2.5-2.5h0c1.4,0,2.5,1.1,2.5,2.5V6z"/></g>
<g transform="translate(264,888) scale(4.12)"><rect x="0.5" width="5" height="6"/></g>
<g transform="translate(312,888) scale(4.12)"><circle cx="3" cy="3" r="2.5"/></g>
<g transform="translate(336,888) scale(4.12)"><path d="M5.5,6h-5V3c0-1.4,1.1-2.5,2.5-2.5h0c1.4,0,2.5,1.1,2.5,2.5V6z"/></g>
<g transform="translate(360,888) scale(4.12)"><circle cx="3" cy="3" r="2.5"/></g>
<g transform="translate(432,888) scale(4.12)"><rect x="0.5" width="5" height="6"/></g>
<g transform="translate(456,888) scale(4.12)"><rect x="0.5" width="5" height="6"/></g>
<g transform="translate(480,888) scale(4.12)"><path d="M3,5.5L3,5.5C1.6,5.5,0.5,4.4,0.5,3V0h5v3C5.5,4.4,4.4,5.5,3,5.5z"/></g>
<g transform="translate(528,888) scale(4.12)"><rect x="0.5" width="5" height="6"/></g>
<g transform="translate(552,888) scale(4.12)"><path d="M5.5,6h-5V3c0-1.4,1.1-2.5,2.5-2.5h0c1.4,0,2.5,1.1,2.5,2.5V6z"/></g>
<g transform="translate(576,888) scale(4.12)"><circle cx="3" cy="3" r="2.5"/></g>
<g transform="translate(600,888) scale(4.12)"><rect x="0.5" width="5" height="6"/></g>
<g transform="translate(696,888) scale(4.12)"><path d="M3,5.5L3,5.5C1.6,5.5,0.5,4.4,0.5,3V0h5v3C5.5,4.4,4.4,5.5,3,5.5z"/></g>
<g transform="translate(720,888) scale(4.12)"><circle cx="3" cy="3" r="2.5"/></g>
<g transform="translate(768,888) scale(4.12)"><circle cx="3" cy="3" r="2.5"/></g>
<g transform="translate(912,888) scale(4.12)"><rect x="0.5" width="5" height="6"/></g>
<g transform="translate(264,912) scale(4.12)"><path d="M3,5.5L3,5.5C1.6,5.5,0.5,4.4,0.5,3V0h5v3C5.5,4.4,4.4,5.5,3,5.5z"/></g>
<g transform="translate(336,912) scale(4.12)"><path d="M3,5.5L3,5.5C1.6,5.5,0.5,4.4,0.5,3V0h5v3C5.5,4.4,4.4,5.5,3,5.5z"/></g>
<g transform="translate(384,912) scale(4.12)"><circle cx="3" cy="3" r="2.5"/></g>
<g transform="translate(432,912) scale(4.12)"><path d="M3,5.5L3,5.5C1.6,5.5,0.5,4.4,0.5,3V0h5v3C5.5,4.4,4.4,5.5,3,5.5z"/></g>
<g transform="translate(456,912) scale(4.12)"><path d="M3,5.5L3,5.5C1.6,5.5,0.5,4.4,0.5,3V0h5v3C5.5,4.4,4.4,5.5,3,5.5z"/></g>
<g transform="translate(504,912) scale(4.12)"><circle cx="3" cy="3" r="2.5"/></g>
<g transform="translate(528,912) scale(4.12)"><path d="M3,5.5L3,5.5C1.6,5.5,0.5,4.4,0.5,3V0h5v3C5.5,4.4,4.4,5.5,3,5.5z"/></g>
<g transform="translate(552,912) scale(4.12)"><path d="M3,5.5L3,5.5C1.6,5.5,0.5,4.4,0.5,3V0h5v3C5.5,4.4,4.4,5.5,3,5.5z"/></g>
<g transform="translate(600,912) scale(4.12)"><path d="M3,5.5L3,5.5C1.6,5.5,0.5,4.4,0.5,3V0h5v3C5.5,4.4,4.4,5.5,3,5.5z"/></g>
<g transform="translate(624,912) scale(4.12)"><circle cx="3" cy="3" r="2.5"/></g>
<g transform="translate(648,912) scale(4.12)"><circle cx="3" cy="3" r="2.5"/></g>
<g transform="translate(672,912) scale(4.12)"><circle cx="3" cy="3" r="2.5"/></g>
<g transform="translate(744,912) scale(4.12)"><circle cx="3" cy="3" r="2.5"/></g>
<g transform="translate(792,912) scale(4.12)"><circle cx="3" cy="3" r="2.5"/></g>
<g transform="translate(840,912) scale(4.12)"><circle cx="3" cy="3" r="2.5"/></g>
<g transform="translate(864,912) scale(4.12)"><circle cx="3" cy="3" r="2.5"/></g>
<g transform="translate(888,912) scale(4.12)"><circle cx="3" cy="3" r="2.5"/></g>
<g transform="translate(912,912) scale(4.12)"><path d="M3,5.5L3,5.5C1.6,5.5,0.5,4.4,0.5,3V0h5v3C5.5,4.4,4.4,5.5,3,5.5z"/></g>
</g></g></mask></defs>
<rect width="984" height="984" fill="#ffffff" x="0" y="0" />
<rect x="0" y="0" width="984" height="984" mask="url(#qrmask)" fill="#000000" />
<g><g transform="translate(48,48)"  fill="#000000"><g transform="scale(12)"><path d="M4.5,14h5.1C12,14,14,12,14,9.6V4.5C14,2,12,0,9.5,0H4.4C2,0,0,2,0,4.4v5.1C0,12,2,14,4.5,14z M12,4.8v4.4 c0,1.5-1.3,2.8-2.8,2.8H4.8C3.2,12,2,10.8,2,9.2V4.8C2,3.3,3.3,2,4.8,2h4.4C10.8,2,12,3.2,12,4.8z"/></g></g>
<g transform="translate(96,96)"  fill="#000000"><g transform="scale(12)"><circle cx="3" cy="3" r="3"/></g></g>
<g transform="translate(768,48)"  fill="#000000"><g transform="scale(12)"><path d="M4.5,14h5.1C12,14,14,12,14,9.6V4.5C14,2,12,0,9.5,0H4.4C2,0,0,2,0,4.4v5.1C0,12,2,14,4.5,14z M12,4.8v4.4 c0,1.5-1.3,2.8-2.8,2.8H4.8C3.2,12,2,10.8,2,9.2V4.8C2,3.3,3.3,2,4.8,2h4.4C10.8,2,12,3.2,12,4.8z"/></g></g>
<g transform="translate(816,96)"  fill="#000000"><g transform="scale(12)"><circle cx="3" cy="3" r="3"/></g></g>
<g transform="translate(48,768)"  fill="#000000"><g transform="scale(12)"><path d="M4.5,14h5.1C12,14,14,12,14,9.6V4.5C14,2,12,0,9.5,0H4.4C2,0,0,2,0,4.4v5.1C0,12,2,14,4.5,14z M12,4.8v4.4 c0,1.5-1.3,2.8-2.8,2.8H4.8C3.2,12,2,10.8,2,9.2V4.8C2,3.3,3.3,2,4.8,2h4.4C10.8,2,12,3.2,12,4.8z"/></g></g>
<g transform="translate(96,816)"  fill="#000000"><g transform="scale(12)"><circle cx="3" cy="3" r="3"/></g></g></g>
</svg>